<svg width="32" height="32" viewBox="0 0 24 24" fill="#339933" xmlns="http://www.w3.org/2000/svg">
  <path d="M12 1.85c-.27 0-.55.07-.78.2l-7.44 4.3c-.48.28-.78.8-.78 1.36v8.58c0 .56.3 1.08.78 1.36l1.95 1.12c.95.46 1.27.46 1.71.46.85 0 1.53-.52 1.53-1.36V9.47c0-.17-.14-.3-.31-.3H7.18c-.17 0-.31.13-.31.3v8.58c0 .19-.21.39-.46.39-.11 0-.29-.04-.44-.11L4.92 17.5c-.27-.16-.44-.46-.44-.78V8.14c0-.33.17-.63.44-.78l7.44-4.3c.26-.15.61-.15.87 0l7.44 4.3c.27.15.44.45.44.78v8.58c0 .32-.17.62-.44.78l-7.44 4.3c-.13.08-.3.12-.44.12-.15 0-.31-.04-.44-.12l-1.96-1.12c-.12-.07-.29-.07-.39 0-.21.13-.25.14-.56.14-.13 0-.25-.05-.34-.14-.18-.18-.29-.46-.29-.78V9.47c0-.17-.13-.3-.3-.3H8.4c-.17 0-.3.13-.3.3v8.58c0 .4.11.74.29 1.05.37.61 1.06 1.22 2.23 1.22.56 0 1.22-.11 1.7-.34l2.02-1.18c.48-.28.78-.8.78-1.36V8.14c0-.56-.3-1.08-.78-1.36L12.78 2.05c-.23-.13-.51-.2-.78-.2z"/>
</svg>
